<svg xmlns="http://www.w3.org/2000/svg" width="48" height="48" fill="none" viewBox="0 0 48 48">
  <defs>
    <linearGradient id="fav-cyan" x1="0" y1="0" x2="1" y2="1">
      <stop offset="0%" stopColor="#06b6d4" />
      <stop offset="100%" stopColor="#0891b2" />
    </linearGradient>
    <linearGradient id="fav-green" x1="0" y1="0" x2="1" y2="1">
      <stop offset="0%" stopColor="#10b981" />
      <stop offset="100%" stopColor="#059669" />
    </linearGradient>
    <filter id="fav-glow" x="-20%" y="-20%" width="140%" height="140%">
      <feGaussianBlur stdDeviation="1.0" result="blur" />
      <feMerge>
        <feMergeNode in="blur" />
        <feMergeNode in="SourceGraphic" />
      </feMerge>
    </filter>
  </defs>
  <circle cx="24" cy="24" r="21" stroke="url(#fav-cyan)" strokeWidth="1.2" strokeDasharray="4 2" opacity="0.6" />
  <circle cx="24" cy="24" r="16.5" stroke="url(#fav-green)" strokeWidth="0.8" opacity="0.35" />
  <line x1="24" y1="3" x2="24" y2="6" stroke="url(#fav-cyan)" strokeWidth="1.2" strokeLinecap="round" />
  <line x1="24" y1="42" x2="24" y2="45" stroke="url(#fav-cyan)" strokeWidth="1.2" strokeLinecap="round" />
  <line x1="3" y1="24" x2="6" y2="24" stroke="url(#fav-cyan)" strokeWidth="1.2" strokeLinecap="round" />
  <line x1="42" y1="24" x2="45" y2="24" stroke="url(#fav-cyan)" strokeWidth="1.2" strokeLinecap="round" />
  <path d="M 16.5 13.5 L 16.5 34.5 M 16.5 13.5 C 22.5 13.5, 28.5 16.5, 28.5 24 C 28.5 31.5, 22.5 34.5, 16.5 34.5" 
        stroke="url(#fav-cyan)" strokeWidth="2.2" strokeLinecap="round" strokeLinejoin="round" filter="url(#fav-glow)" />
  <path d="M 23.25 24 L 31.5 24 M 31.5 13.5 L 31.5 34.5" 
        stroke="url(#fav-green)" strokeWidth="2.2" strokeLinecap="round" strokeLinejoin="round" filter="url(#fav-glow)" />
  <circle cx="24" cy="24" r="1" fill="#10b981" />
</svg>